<?xml version="1.0" standalone="no"?>
<!DOCTYPE svg PUBLIC "-//W3C//DTD SVG 20010904//EN"
 "http://www.w3.org/TR/2001/REC-SVG-20010904/DTD/svg10.dtd">
<svg version="1.0" xmlns="http://www.w3.org/2000/svg"
 width="120.000000pt" height="120.000000pt" viewBox="0 0 120.000000 120.000000"
 preserveAspectRatio="xMidYMid meet">
<metadata>
Created by potrace 1.14, written by Peter Selinger 2001-2017
</metadata>
<g transform="translate(0.000000,120.000000) scale(0.100000,-0.100000)"
fill="#000000" stroke="none">
<path d="M536 1188 c5 -7 -10 -12 -28 -9 -5 0 -8 -4 -8 -10 0 -5 -5 -7 -10 -4
-6 4 -9 1 -8 -7 2 -7 -4 -12 -12 -10 -8 2 -12 1 -8 -3 4 -4 -2 -17 -13 -29
-11 -11 -18 -29 -15 -38 2 -10 1 -16 -4 -13 -4 3 -8 -10 -8 -29 0 -19 -3 -40
-7 -45 -3 -6 1 -14 10 -17 9 -4 14 -12 11 -20 -3 -7 2 -18 10 -24 8 -7 14 -19
14 -27 0 -8 4 -12 8 -9 5 3 16 -3 25 -12 32 -35 47 -44 47 -30 0 8 5 5 11 -5
6 -11 15 -15 22 -10 7 4 28 8 47 8 19 0 41 7 48 15 9 9 11 10 7 1 -5 -9 1 -8
19 4 14 9 23 21 20 26 -3 5 3 6 12 2 11 -4 15 -2 11 4 -8 13 17 36 27 26 4 -4
4 0 1 9 -4 9 -1 19 4 23 6 3 9 10 6 15 -3 5 -1 18 5 29 7 14 7 22 -1 27 -8 4
-7 9 2 15 10 6 11 9 2 9 -7 0 -13 10 -13 21 0 12 -8 28 -17 36 -11 9 -12 11
-3 7 8 -4 2 6 -15 22 -36 36 -91 73 -79 53 6 -12 5 -12 -8 -1 -18 14 -121 14
-112 0z"/>
<path d="M1 508 c0 -189 4 -352 9 -363 5 -11 9 -14 9 -7 1 10 13 12 45 9 25
-3 49 -8 55 -12 6 -3 11 -1 11 5 0 7 6 8 18 2 9 -5 27 -8 40 -7 12 1 22 -2 22
-6 0 -4 13 -6 30 -5 17 1 30 -1 30 -5 0 -4 7 -10 16 -13 10 -4 13 -2 8 7 -6 9
-5 9 8 0 8 -7 18 -10 21 -6 4 3 7 1 7 -5 0 -6 6 -9 14 -6 8 3 17 1 20 -5 4 -6
13 -8 20 -5 8 3 17 1 20 -5 4 -6 13 -8 20 -5 7 3 19 -2 26 -11 7 -8 21 -15 31
-15 11 0 19 -5 19 -11 0 -5 4 -7 10 -4 5 3 20 0 32 -7 13 -7 29 -11 37 -9 7 1
10 -2 6 -8 -9 -16 17 -14 40 3 11 7 25 14 30 15 31 5 55 14 55 20 0 4 7 8 15
9 8 1 22 3 30 4 8 1 15 6 15 11 0 5 12 7 26 4 15 -2 31 2 40 10 8 9 24 13 35
10 14 -4 19 -1 16 7 -4 9 3 12 18 11 13 -2 34 3 48 10 18 9 28 10 36 2 7 -7
11 -7 11 -1 0 6 18 10 40 10 22 -1 40 2 40 5 0 4 14 5 31 3 22 -3 28 0 23 9
-5 9 -4 9 7 0 16 -16 33 -17 23 -2 -4 8 0 8 15 0 l21 -12 0 346 0 346 -22 8
c-13 5 -25 6 -28 2 -3 -4 -28 -7 -56 -6 -40 0 -50 -3 -46 -14 4 -10 1 -12 -9
-5 -16 10 -56 6 -83 -8 -12 -7 -16 -7 -12 0 7 12 -7 10 -44 -5 -14 -6 -28 -9
-32 -6 -5 2 -8 1 -8 -4 0 -4 -14 -9 -32 -10 -17 -1 -34 -6 -37 -10 -7 -10 -30
-16 -54 -15 -9 0 -15 -3 -12 -9 4 -5 -5 -9 -19 -9 -14 0 -26 -5 -26 -12 0 -6
-3 -8 -7 -5 -3 4 -12 2 -20 -4 -7 -6 -13 -8 -13 -3 0 5 -4 3 -9 -4 -4 -7 -20
-15 -35 -16 -15 -2 -24 -1 -21 2 6 7 -76 47 -89 44 -4 -2 -14 2 -20 8 -7 5
-16 7 -19 3 -4 -3 -7 -1 -7 5 0 7 -3 11 -7 10 -5 -1 -19 4 -32 11 -13 7 -20 8
-17 2 4 -6 -9 -4 -28 4 -20 9 -39 14 -43 13 -5 -1 -19 4 -32 11 -19 11 -22 11
-15 -1 6 -10 5 -11 -7 -2 -8 6 -24 10 -36 9 -13 -1 -23 1 -23 5 0 4 -10 6 -22
5 -13 -1 -29 3 -37 9 -12 9 -13 8 -7 -4 4 -8 0 -6 -8 4 -9 11 -16 15 -16 9 0
-12 -79 -11 -98 1 -9 5 -12 -72 -11 -336z"/>
</g>
</svg>
